<svg id="Layer_1" data-name="Layer 1" xmlns="http://www.w3.org/2000/svg" xmlns:xlink="http://www.w3.org/1999/xlink" viewBox="0 0 1500 1500">
  <defs>
    <style>
      .cls-1 {
        fill: url(#New_Gradient_Swatch);
      }

      .cls-2 {
        fill: url(#New_Gradient_Swatch-2);
      }

      .cls-3 {
        fill: url(#New_Gradient_Swatch-3);
      }

      .cls-4 {
        fill: url(#New_Gradient_Swatch-4);
      }

      .cls-5 {
        fill: url(#New_Gradient_Swatch-5);
      }

      .cls-6 {
        fill: url(#New_Gradient_Swatch-6);
      }

      .cls-7 {
        fill: url(#New_Gradient_Swatch-7);
      }
    </style>
    <linearGradient id="New_Gradient_Swatch" data-name="New Gradient Swatch" x1="824.53" y1="365.51" x2="1154.13" y2="365.51" gradientUnits="userSpaceOnUse">
      <stop offset="0" stop-color="#29545b"/>
      <stop offset="1" stop-color="#519ba9"/>
    </linearGradient>
    <linearGradient id="New_Gradient_Swatch-2" x1="423.59" y1="606.67" x2="1077.21" y2="606.67" xlink:href="#New_Gradient_Swatch"/>
    <linearGradient id="New_Gradient_Swatch-3" x1="394.47" y1="391.87" x2="1105.53" y2="391.87" xlink:href="#New_Gradient_Swatch"/>
    <linearGradient id="New_Gradient_Swatch-4" x1="345.87" y1="365.48" x2="675.51" y2="365.48" xlink:href="#New_Gradient_Swatch"/>
    <linearGradient id="New_Gradient_Swatch-5" x1="66.88" y1="441.1" x2="1432.96" y2="441.1" xlink:href="#New_Gradient_Swatch"/>
    <linearGradient id="New_Gradient_Swatch-6" x1="67.08" y1="813.47" x2="1433.08" y2="813.47" xlink:href="#New_Gradient_Swatch"/>
    <linearGradient id="New_Gradient_Swatch-7" x1="67.08" y1="1131.45" x2="1433.12" y2="1131.45" xlink:href="#New_Gradient_Swatch"/>
  </defs>
  <title>thamizh-logo-vector</title>
  <g>
    <path class="cls-1" d="M1154.13,505.11V362.86c-27.42-3.38-52.13-12-67.3-25.07s-17.95-27.87-10.22-41.26L827.45,225.37c-1,.49-1.93,1-2.92,1.44L1150,505.65Q1152.06,505.37,1154.13,505.11Z"/>
    <path class="cls-2" d="M424.7,569.6c-.34.69-.71,1.38-1.11,2.06l248.8,71.05c19.59-10.05,47.1-16.3,77.61-16.3,31.54,0,59.88,6.68,79.57,17.33L1077.21,573a36.74,36.74,0,0,1-1.94-3.42Z"/>
    <path class="cls-3" d="M413.48,530.21a44.94,44.94,0,0,1,11.36,14h650.33a44.9,44.9,0,0,1,11.35-14,83.72,83.72,0,0,1,19-12L780.14,239.48A212.94,212.94,0,0,1,750,241.59a213.6,213.6,0,0,1-30.08-2.1L394.47,518.29A85.45,85.45,0,0,1,413.48,530.21Z"/>
    <path class="cls-4" d="M675.51,226.83c-1.06-.5-2.1-1-3.12-1.54L423.32,296.42c7.81,13.42,5,28.32-10.15,41.37s-39.88,21.69-67.3,25.07V505.12c1.39.17,2.78.36,4.15.55Z"/>
    <path class="cls-5" d="M749.92,793.21c377.23,0,683-157.65,683-352.11S1127.15,89,749.92,89s-683,157.65-683,352.11S372.69,793.21,749.92,793.21ZM226.39,284.5C256,259,322.09,250.29,373.65,265a130.83,130.83,0,0,1,24.23,9.46l248.74-71a29.31,29.31,0,0,1-4.37-15.09C642.25,158.82,690.41,135,750,135s107.75,23.82,107.75,53.29a29.39,29.39,0,0,1-4.44,15.2l248.65,71a130.3,130.3,0,0,1,24.39-9.55c51.56-14.66,117.32-5.95,147.26,19.55,29.64,25.5,12,58-39.52,72.84a183.67,183.67,0,0,1-28.71,5.64V505.06a183.8,183.8,0,0,1,28.41,5.6c51.86,14.81,69.46,47.34,39.51,72.84-29.63,25.5-95.7,34.21-147.26,19.55a125.7,125.7,0,0,1-26.76-10.77l-247,70.55a30.08,30.08,0,0,1,5.5,16.88C857.75,709,809.59,733,750,733s-107.75-23.82-107.75-53.29a29.31,29.31,0,0,1,4.37-15.09l-248.54-71A131.19,131.19,0,0,1,374,603.05c-51.87,14.66-117.63,6-147.26-19.55s-12-58,39.51-72.84a185.24,185.24,0,0,1,28.41-5.61V363a183.67,183.67,0,0,1-28.71-5.64C214.35,342.68,196.75,310,226.39,284.5Z"/>
    <path class="cls-6" d="M750.08,833.75c-377.19,0-683-139.49-683-311.56v271c0,172.07,305.81,311.56,683,311.56s683-139.49,683-311.56v-271C1433.08,694.26,1127.27,833.75,750.08,833.75Z"/>
    <path class="cls-7" d="M750.12,1140c-377.23,0-683-116-683-288.1l0,247.56c0,172.07,305.81,311.56,683,311.56s683-139.49,683-311.56V851.91C1433.12,1024,1127.35,1140,750.12,1140Z"/>
  </g>
</svg>
